<svg width="54" height="54" viewBox="0 0 54 54" fill="none" xmlns="http://www.w3.org/2000/svg">
<path d="M32.2856 24L31.3713 23.3143C30.8535 22.9258 30.4828 22.3729 30.3199 21.7465L28.6921 15.4738C28.6085 15.5024 28.5228 15.5274 28.4343 15.5424C28.34 15.5602 28.2428 15.5717 28.1428 15.5717H25.8572C25.7572 15.5717 25.66 15.5602 25.5658 15.5424C25.4765 15.5274 25.3915 15.5024 25.3079 15.4738L23.6801 21.7465C23.5172 22.3729 23.1465 22.9258 22.6287 23.3143L21.7144 24C20.9952 24.5393 20.5716 25.3864 20.5716 26.2857V39.8568C20.5716 41.4346 21.8508 42.7139 23.4287 42.7139H30.5713C32.1492 42.7139 33.4284 41.4346 33.4284 39.8568V26.2857C33.4284 25.3864 33.0049 24.5393 32.2856 24Z" stroke="black" stroke-width="4" stroke-miterlimit="10" stroke-linecap="round" stroke-linejoin="round"/>
<path d="M28.1428 11.2861H25.8572C24.9108 11.2861 24.1429 12.0539 24.1429 13.0003V13.8574C24.1429 14.8038 24.9108 15.5717 25.8572 15.5717H28.1428C29.0892 15.5717 29.8571 14.8038 29.8571 13.8574V13.0003C29.8571 12.0539 29.0892 11.2861 28.1428 11.2861Z" stroke="black" stroke-width="4" stroke-miterlimit="10" stroke-linecap="round" stroke-linejoin="round"/>
<path d="M20.5716 27.7142H33.4284" stroke="black" stroke-width="4" stroke-miterlimit="10" stroke-linecap="round" stroke-linejoin="round"/>
<path d="M20.5716 35.5712H33.4284" stroke="black" stroke-width="4" stroke-miterlimit="10" stroke-linecap="round" stroke-linejoin="round"/>
<path d="M2.03992 11.1718L8.4219 10.2725L9.32616 16.6624" stroke="black" stroke-width="4" stroke-miterlimit="10" stroke-linecap="round" stroke-linejoin="round"/>
<path d="M5.97552 40.5203C3.69344 36.9797 2.27133 32.817 2.03491 28.3085C1.67349 21.4144 4.14057 15.0274 8.42189 10.2725" stroke="black" stroke-width="4" stroke-miterlimit="10" stroke-linecap="round" stroke-linejoin="round"/>
<path d="M11.1718 51.9601L10.2725 45.5781L16.6624 44.6738" stroke="black" stroke-width="4" stroke-miterlimit="10" stroke-linecap="round" stroke-linejoin="round"/>
<path d="M40.5203 48.0245C36.979 50.3066 32.817 51.7294 28.3085 51.9651C21.4144 52.3265 15.0267 49.8594 10.2725 45.5781" stroke="black" stroke-width="4" stroke-miterlimit="10" stroke-linecap="round" stroke-linejoin="round"/>
<path d="M51.9601 42.8282L45.5781 43.7274L44.6738 37.3376" stroke="black" stroke-width="4" stroke-miterlimit="10" stroke-linecap="round" stroke-linejoin="round"/>
<path d="M48.0245 13.4796C50.3066 17.021 51.7294 21.183 51.9651 25.6915C52.3265 32.5856 49.8594 38.9733 45.5781 43.7274" stroke="black" stroke-width="4" stroke-miterlimit="10" stroke-linecap="round" stroke-linejoin="round"/>
<path d="M42.8282 2.03992L43.7274 8.4219L37.3376 9.32616" stroke="black" stroke-width="4" stroke-miterlimit="10" stroke-linecap="round" stroke-linejoin="round"/>
<path d="M13.4796 5.97552C17.021 3.69344 21.183 2.27061 25.6915 2.03491C32.5856 1.67349 38.9733 4.14057 43.7275 8.42189" stroke="black" stroke-width="4" stroke-miterlimit="10" stroke-linecap="round" stroke-linejoin="round"/>
</svg>
